<?xml version="1.0" encoding="UTF-8" standalone="no"?>
<svg
   xmlns:dc="http://purl.org/dc/elements/1.1/"
   xmlns:cc="http://creativecommons.org/ns#"
   xmlns:rdf="http://www.w3.org/1999/02/22-rdf-syntax-ns#"
   xmlns:svg="http://www.w3.org/2000/svg"
   xmlns="http://www.w3.org/2000/svg"
   xmlns:sodipodi="http://sodipodi.sourceforge.net/DTD/sodipodi-0.dtd"
   xmlns:inkscape="http://www.inkscape.org/namespaces/inkscape"
   sodipodi:docname="404page.svg"
   inkscape:version="1.0 (4035a4fb49, 2020-05-01)"
   width="210mm"
   height="297mm"
   viewBox="0 0 210 297"
   version="1.1"
   id="svg8">
  <defs
     id="defs2">
    <inkscape:path-effect
       effect="bspline"
       id="path-effect894"
       is_visible="true"
       lpeversion="1"
       weight="33.333333"
       steps="2"
       helper_size="0"
       apply_no_weight="true"
       apply_with_weight="true"
       only_selected="false" />
    <inkscape:path-effect
       effect="bspline"
       id="path-effect890"
       is_visible="true"
       lpeversion="1"
       weight="33.333333"
       steps="2"
       helper_size="0"
       apply_no_weight="true"
       apply_with_weight="true"
       only_selected="false" />
    <inkscape:path-effect
       only_selected="false"
       apply_with_weight="true"
       apply_no_weight="true"
       helper_size="0"
       steps="2"
       weight="33.333333"
       lpeversion="1"
       is_visible="true"
       id="path-effect925"
       effect="bspline" />
    <inkscape:path-effect
       effect="bspline"
       id="path-effect865"
       is_visible="true"
       lpeversion="1"
       weight="33.333333"
       steps="2"
       helper_size="0"
       apply_no_weight="true"
       apply_with_weight="true"
       only_selected="false" />
    <inkscape:path-effect
       only_selected="false"
       apply_with_weight="true"
       apply_no_weight="true"
       helper_size="0"
       steps="2"
       weight="33.333333"
       lpeversion="1"
       is_visible="true"
       id="path-effect861"
       effect="bspline" />
    <inkscape:path-effect
       only_selected="false"
       apply_with_weight="true"
       apply_no_weight="true"
       helper_size="0"
       steps="2"
       weight="33.333333"
       lpeversion="1"
       is_visible="true"
       id="path-effect857"
       effect="bspline" />
    <inkscape:path-effect
       effect="bspline"
       id="path-effect851"
       is_visible="true"
       lpeversion="1"
       weight="33.333333"
       steps="2"
       helper_size="0"
       apply_no_weight="true"
       apply_with_weight="true"
       only_selected="false" />
    <inkscape:path-effect
       only_selected="false"
       apply_with_weight="true"
       apply_no_weight="true"
       helper_size="0"
       steps="2"
       weight="33.333333"
       lpeversion="1"
       is_visible="true"
       id="path-effect845"
       effect="bspline" />
    <rect
       id="rect839"
       height="44.60119"
       width="105.83333"
       y="96.383929"
       x="52.916667" />
    <rect
       x="52.916667"
       y="96.383929"
       width="105.83333"
       height="44.60119"
       id="rect906" />
  </defs>
  <sodipodi:namedview
     inkscape:window-maximized="0"
     inkscape:window-y="6"
     inkscape:window-x="64"
     inkscape:window-height="977"
     inkscape:window-width="1541"
     showgrid="false"
     inkscape:document-rotation="0"
     inkscape:current-layer="layer1"
     inkscape:document-units="mm"
     inkscape:cy="602.73521"
     inkscape:cx="667.33929"
     inkscape:zoom="0.49497475"
     inkscape:pageshadow="2"
     inkscape:pageopacity="0.0"
     borderopacity="1.0"
     bordercolor="#666666"
     pagecolor="#ffffff"
     id="base" />
  <metadata
     id="metadata5">
    <rdf:RDF>
      <cc:Work
         rdf:about="">
        <dc:format>image/svg+xml</dc:format>
        <dc:type
           rdf:resource="http://purl.org/dc/dcmitype/StillImage" />
        <dc:title />
      </cc:Work>
    </rdf:RDF>
  </metadata>
  <g
     id="layer1"
     inkscape:groupmode="layer"
     inkscape:label="Layer 1">
    <path
       style="fill:#f03b7a;fill-opacity:1;stroke:#000000;stroke-width:0.741047px;stroke-linecap:butt;stroke-linejoin:miter;stroke-opacity:1"
       d="m 13.5149,131.81285 c -0.873249,-4.74053 -2.6199,-14.22243 -3.056659,-24.01644 -0.436759,-9.794014 0.436554,-19.899544 3.368472,-28.945108 2.931918,-9.045564 7.922275,-17.030161 12.912881,-23.330797 4.990605,-6.300636 9.980976,-10.916715 16.219359,-14.472524 6.238383,-3.555808 13.723946,-6.050999 20.773198,-7.610497 7.049251,-1.559497 13.661495,-2.183291 20.835437,-2.495162 7.173942,-0.311872 14.909003,-0.311872 20.710382,-0.748613 5.80138,-0.43674 9.66891,-1.31005 12.351,-2.619967 2.68209,-1.309917 4.17922,-3.056571 4.74075,-4.927624 0.56153,-1.871054 0.18725,-3.867198 -0.49865,-5.36441 -0.68591,-1.497212 -1.68401,-2.495317 -0.24921,-2.99472 1.4348,-0.499403 5.30236,-0.499403 8.04719,0.124751 2.74483,0.624154 4.3667,1.871745 6.05089,3.680912 1.68419,1.809167 3.43084,4.179597 5.23982,7.173935 1.80898,2.994338 3.68038,6.612382 5.42722,8.420979 1.74685,1.808597 3.36871,1.808597 5.24005,1.558999 1.87135,-0.249598 3.99221,-0.748626 5.36425,-1.68411 1.37205,-0.935483 1.99586,-2.30786 3.11923,-2.869388 1.12338,-0.561529 2.74523,-0.312015 4.67908,0.623947 1.93384,0.935963 4.17951,2.55783 5.61398,4.678953 1.43448,2.121123 2.05828,4.741066 2.30767,6.924334 0.2494,2.183269 0.12463,3.929903 2.86006,7.095552 2.73543,3.165649 8.43549,7.836591 13.24405,13.547147 4.80856,5.710555 8.77839,12.503396 11.68951,19.913946 2.91111,7.410551 4.7637,15.438398 5.38111,22.892965 0.6174,7.45457 -1.3e-4,14.33558 -0.97059,20.55508 -0.97046,6.21951 -2.29373,11.77728 -2.38144,14.82081 -0.0877,3.04352 1.05914,3.57284 2.20577,5.11697 1.14663,1.54412 2.29347,4.10245 2.69022,6.9254 0.39674,2.82295 0.0439,5.91059 -1.0021,10.19325 -1.04597,4.28267 -2.83577,9.92059 -5.30595,15.43427 -2.47019,5.51368 -5.64607,10.98324 -8.64546,14.77656 -2.99938,3.79331 -5.82233,5.91053 -7.76302,7.14559 -1.94068,1.23505 -2.99933,1.58793 -5.11695,6.57276 -2.11761,4.98484 -5.29345,14.60062 -8.16062,22.23166 -2.86718,7.63105 -5.42549,13.27701 -8.8661,19.23184 -3.4406,5.95483 -7.76329,12.21832 -12.65943,17.29088 -4.89613,5.07255 -10.36572,8.95419 -16.39508,12.03716 -6.02935,3.08296 -12.67297,5.38608 -19.42172,6.48891 -6.74874,1.10282 -13.62975,1.0146 -19.849273,0.17661 -6.219524,-0.83799 -11.77731,-2.42593 -17.467572,-5.24884 -5.690263,-2.82291 -11.512636,-6.88093 -16.519514,-11.35469 -5.006878,-4.47375 -9.284936,-9.46485 -13.122657,-15.55205 -3.837722,-6.08721 -7.278255,-13.32112 -9.57209,-19.14369 -2.293835,-5.82256 -3.440682,-10.23348 -4.881712,-14.99086 -1.441031,-4.75737 -3.176242,-9.86098 -4.308901,-12.91188 -1.132659,-3.0509 -1.662884,-4.04897 -2.333413,-4.47056 -0.670529,-0.42158 -1.481501,-0.26562 -2.869366,-0.76437 -1.387866,-0.49874 -3.352825,-1.65278 -5.414384,-4.33476 -2.061558,-2.68198 -4.20084,-6.85627 -6.003005,-11.24616 C 9.9494472,180.9599 8.4938358,176.37254 7.3910069,171.89531 6.288178,167.41808 5.5383234,163.05128 5.295621,159.08125 5.0529186,155.11122 5.31757,151.5384 5.9261288,148.82084 c 0.6085586,-2.71756 1.5968497,-4.64921 2.7438512,-6.14914 1.1470016,-1.49993 2.470256,-2.60262 3.57317,-3.35255 1.102914,-0.74994 1.985064,-1.14692 2.305957,-1.54854 0.320893,-0.40162 0.08019,-0.80905 -0.04038,-1.01315 -0.120577,-0.2041 -0.120577,-0.20408 -0.993825,-4.94461 z"
       id="path888"
       inkscape:path-effect="#path-effect890"
       inkscape:original-d="M 14.388148,136.55338 C 12.642233,127.07221 10.89559,117.59031 9.1481908,108.10766 10.022268,98.002464 10.89559,87.896935 11.768183,77.790481 c 4.991329,-7.984193 9.981705,-15.968778 14.971381,-23.954288 4.991357,-4.615544 9.981706,-9.231647 14.971494,-13.848591 7.486573,-2.494544 14.972137,-4.989733 22.45717,-7.485733 6.613251,-0.623069 13.225494,-1.246866 19.837121,-1.871419 7.736181,7.28e-4 15.471242,7.28e-4 23.205711,0 3.86849,-0.872605 7.73602,-1.745923 11.6029,-2.619998 1.49788,-1.745963 2.99503,-3.492597 4.49142,-5.240005 -0.37358,-1.995486 -0.74779,-3.991643 -1.12285,-5.988575 -0.99737,-0.997377 -1.9955,-1.99545 -2.99427,-2.994287 3.8684,7.39e-4 7.73596,7.39e-4 11.60282,0 1.62274,1.248384 3.2446,2.495984 4.86571,3.742858 1.74749,2.371266 3.49413,4.7417 5.24004,7.111432 1.87218,3.618911 3.74363,7.236925 5.61426,10.854287 1.62274,7.56e-4 3.2446,7.56e-4 4.86571,0 2.12179,-0.498293 4.24265,-0.997341 6.36286,-1.497147 0.62455,-1.371642 1.24838,-2.744012 1.87145,-4.117133 1.62268,0.250281 3.24454,0.499772 4.86574,0.748568 2.24647,1.622679 4.49214,3.244545 6.73716,4.865712 0.62455,2.620805 1.24838,5.240741 1.87145,7.860005 -0.12408,1.747455 -0.24872,3.494098 -0.37431,5.240013 5.56007,4.628652 11.29557,9.256351 16.94229,13.883434 3.97068,6.793819 7.94056,13.586631 11.90967,20.378826 1.85344,8.028923 3.70598,16.056781 5.55788,24.08408 -0.61677,6.88204 -1.23429,13.76305 -1.85263,20.64347 -1.32254,5.55872 -2.64584,11.11649 -3.96987,16.67361 1.14758,0.53005 2.29443,1.05938 3.44055,1.58795 1.14766,2.55918 2.29451,5.1175 3.4406,7.67515 -0.35215,3.08851 -0.70502,6.17615 -1.05865,9.2631 -1.7637,5.47049 -3.52807,11.11648 -5.29317,16.6736 -3.17523,5.47049 -6.35115,10.94003 -9.52781,16.40893 -2.82235,2.11806 -5.64529,4.2353 -8.46907,6.35182 -1.05792,0.35363 -2.11657,0.70651 -3.17598,1.05865 -3.17525,9.61693 -6.35107,19.23271 -9.52772,28.84796 -2.55773,5.64694 -5.11605,11.2929 -7.67512,16.93825 -4.32216,6.26449 -8.64485,12.52798 -12.96836,18.79088 -5.469,3.88248 -10.9386,7.7641 -16.40895,11.64505 -6.61594,2.20628 -13.23225,4.58818 -19.8495,6.88115 -6.88056,-0.0874 -13.76157,-0.17561 -20.643533,-0.26468 -5.557205,-1.58728 -11.114998,-3.1752 -16.673604,-4.7639 -5.821881,-4.05746 -11.644239,-8.1155 -17.467549,-12.17435 -4.233905,-4.85146 -8.468398,-9.8799 -12.70362,-14.82098 -3.439958,-7.23344 -6.880505,-14.46735 -10.321779,-21.70213 -1.146177,-4.41035 -2.293026,-8.82127 -3.440603,-13.233 -1.734515,-5.10305 -3.469759,-10.20664 -5.205731,-15.31109 -0.529465,-0.99737 -1.059687,-1.99544 -1.590721,-2.99429 -0.810192,0.15656 -1.621139,0.31265 -2.432871,0.46787 -1.964294,-1.15334 -3.92926,-2.30736 -5.894955,-3.46214 -2.191972,-4.19164 -4.296306,-8.38384 -6.44551,-12.57685 -1.4548825,-4.58681 -2.910549,-9.17415 -4.3669157,-13.76233 -0.7491334,-4.36624 -1.4989951,-8.73304 -2.2496129,-13.10069 0.2655171,-3.57224 0.5300818,-7.14507 0.7939744,-10.71874 0.9712099,-1.85189 1.9416076,-3.79269 2.911277,-5.69018 1.3241123,-1.10201 2.6473282,-2.20475 3.9699562,-3.30824 0.882956,-0.39626 1.7651,-0.79325 2.646572,-1.19099 -0.239749,-0.40659 -0.480563,-0.81395 -0.721937,-1.22202 z" />
    <text
       transform="matrix(6.6674466,0,0,8.8840486,-304.9599,-807.41702)"
       style="font-style:normal;font-variant:normal;font-weight:normal;font-stretch:normal;font-size:10.5833px;line-height:1.25;font-family:'Helvetica Neue LT Std';-inkscape-font-specification:'Helvetica Neue LT Std, Normal';font-variant-ligatures:normal;font-variant-caps:normal;font-variant-numeric:normal;font-variant-east-asian:normal;white-space:pre;shape-inside:url(#rect839);fill:#aeb0bf;fill-opacity:1;stroke:none;"
       id="text837"
       xml:space="preserve"><tspan
         x="52.916016"
         y="105.26415"><tspan
           style="font-style:normal;font-variant:normal;font-weight:normal;font-stretch:normal;font-size:10.5833px;font-family:'Helvetica Neue LT Std';-inkscape-font-specification:'Helvetica Neue LT Std, Normal';font-variant-ligatures:normal;font-variant-caps:normal;font-variant-numeric:normal;font-variant-east-asian:normal;fill:#aeb0bf;fill-opacity:1">404</tspan></tspan></text>
    <path
       style="fill:none;stroke:#000000;stroke-width:0.741047px;stroke-linecap:butt;stroke-linejoin:miter;stroke-opacity:1"
       d="m 26.630353,143.25954 c -0.202815,0.53044 -0.608281,1.5909 -0.841258,2.65159 -0.232977,1.06069 -0.297118,2.18344 -0.03164,3.08801 0.265479,0.90458 0.858093,1.62196 1.247888,2.15225 0.389796,0.5303 0.57692,0.87337 0.763874,1.76228 0.186955,0.88892 0.37409,2.32364 0.685982,5.70786 0.311893,3.38422 0.748557,8.71766 1.434891,12.71012 0.686334,3.99246 1.62204,6.64361 2.542235,8.87373 0.920195,2.23013 1.824704,4.03915 3.306467,5.5049 1.481762,1.46575 3.540323,2.58862 5.27141,3.47753 1.731087,0.8889 3.134637,1.54389 6.690358,2.08954 3.555721,0.54566 9.263497,0.98232 14.331921,1.04464 5.068423,0.0623 9.497376,-0.24957 12.881552,-0.60829 3.384175,-0.35873 5.723361,-0.76419 8.071786,-1.57193 2.348425,-0.80773 4.731532,-2.03063 6.633963,-3.77716 1.902432,-1.74653 3.33717,-4.0234 4.990264,-8.29641 1.653094,-4.27301 3.524477,-10.54217 4.522832,-13.69663 0.998352,-3.15446 1.123312,-3.19355 3.267242,-3.20877 2.14393,-0.0152 6.30669,-0.007 8.47431,0.15341 2.16762,0.16025 2.34025,0.47144 3.12824,3.32508 0.78799,2.85364 2.19153,8.2495 3.20534,11.5557 1.01382,3.30621 1.63762,4.52261 2.37894,5.74416 0.74133,1.22155 1.62928,2.49007 2.78347,3.67523 1.15419,1.18516 2.58893,2.30799 3.80539,3.05641 1.21647,0.74842 2.21452,1.12269 3.72728,1.54371 1.51275,0.42102 3.54012,0.88887 6.2381,1.29428 2.69798,0.40542 6.06649,0.7485 9.40388,0.93559 3.33739,0.18709 6.64353,0.21826 10.02766,0.0311 3.38413,-0.18719 6.84622,-0.59266 9.59089,-1.10735 2.74468,-0.51468 4.77205,-1.1385 6.61215,-1.99623 1.8401,-0.85773 3.49317,-1.94937 4.82831,-3.14254 1.33514,-1.19317 2.3763,-2.51828 3.2652,-4.31158 0.8889,-1.79329 1.63745,-4.07018 2.30805,-6.3003 0.6706,-2.23013 1.26319,-4.4134 1.59074,-6.79938 0.32755,-2.38599 0.38992,-4.97476 0.42111,-7.31405 0.0312,-2.3393 0.0312,-4.42902 0.14029,-5.84831 0.10909,-1.41929 0.32742,-2.16787 0.67626,-2.72209 0.34883,-0.55422 0.86783,-0.94348 1.27319,-1.44235 0.40536,-0.49887 0.71726,-1.12267 0.82653,-2.22971 0.10926,-1.10703 0.0157,-2.69773 -0.37389,-3.88296 -0.38958,-1.18524 -1.07578,-1.96499 -1.65271,-2.41753 -0.57694,-0.45253 -1.04478,-0.57729 -3.52449,-0.79571 -2.47971,-0.21843 -6.97106,-0.53033 -12.42949,-0.85785 -5.45842,-0.32752 -11.88352,-0.67061 -17.01446,-0.63947 -5.13095,0.0311 -8.96727,0.43661 -12.07081,0.84208 -3.10354,0.40547 -5.47392,0.81093 -7.64175,1.32556 -2.16783,0.51462 -4.13279,1.13841 -6.19149,2.05854 -2.0587,0.92013 -4.21078,2.13654 -6.64355,3.11906 -2.43277,0.98252 -5.14629,1.73108 -8.29646,2.08985 -3.15017,0.35877 -6.737,0.3276 -9.60646,0.0938 -2.869466,-0.23383 -5.02164,-0.6705 -6.986617,-1.32537 -1.964976,-0.65486 -3.742822,-1.52819 -5.817017,-2.55749 -2.074195,-1.0293 -4.444588,-2.2145 -7.220622,-3.0724 -2.776035,-0.85791 -5.957366,-1.38813 -9.168703,-1.79353 -3.211336,-0.4054 -6.457756,-0.68634 -10.325466,-0.74877 -3.86771,-0.0624 -8.359071,0.0935 -13.458783,0.31185 -5.099712,0.21833 -10.807433,0.49904 -14.331989,0.66987 -3.524557,0.17084 -4.928041,0.23461 -5.817278,0.39053 -0.889238,0.15592 -1.294627,0.40539 -1.497479,0.53022 -0.202852,0.12483 -0.202768,0.1253 -0.405583,0.65575 z"
       id="path892"
       inkscape:path-effect="#path-effect894"
       inkscape:original-d="m 26.833168,142.72909 c -0.404746,1.06123 -0.810192,2.1217 -1.216421,3.18145 -0.06162,1.06122 -0.124076,2.18407 -0.187095,3.27499 0.593352,0.71813 1.185976,1.4355 1.777844,2.15214 0.187935,0.34386 0.375057,0.68693 0.561423,1.0293 0.187935,1.43553 0.375057,2.87025 0.561423,4.30429 0.437431,5.33443 0.874078,10.66788 1.310024,16.00071 0.936452,2.652 1.872176,5.30314 2.807171,7.95358 0.905251,1.80983 1.809773,3.61884 2.713568,5.42713 2.059297,1.12363 4.117867,2.24648 6.17568,3.3686 1.404356,0.65575 2.807899,1.31075 4.210714,1.96499 5.708729,0.43743 11.416506,0.87408 17.12361,1.31 4.42985,-0.31117 8.858803,-0.62307 13.287141,-0.9357 2.340107,-0.40474 4.67929,-0.81022 7.017884,-1.21645 2.371225,-1.18452 4.741665,-2.43211 7.111404,-3.64926 1.435557,-2.27622 2.870301,-4.55309 4.30429,-6.83074 1.872203,-6.26866 3.743566,-12.53783 5.614262,-18.80787 0.12547,-0.0381 0.25039,-0.0773 0.37432,-0.11708 4.16364,0.008 8.3264,0.0168 12.48852,0.0252 0.17337,0.31195 0.34598,0.62315 0.5179,0.93362 1.40438,5.3968 2.80793,10.79265 4.21071,16.18786 0.62456,1.21721 1.24838,2.4336 1.87145,3.64929 0.87408,1.21721 1.7474,2.49597 2.61999,3.74287 1.43556,1.12363 2.8703,2.24645 4.30429,3.36856 0.99886,0.37503 1.9969,0.74933 2.99429,1.12288 2.02816,0.4686 4.05553,0.93645 6.08214,1.40357 3.3694,0.34383 6.73791,0.68693 10.10575,1.02927 3.307,0.0319 6.61314,0.063 9.91858,0.0935 3.46292,-0.40475 6.92501,-0.81022 10.38639,-1.21642 2.02815,-0.6231 4.05552,-1.2469 6.08213,-1.87145 1.65388,-1.09095 3.30695,-2.18259 4.95932,-3.27499 0.99888,-1.3093 2.05932,-2.61927 3.0879,-3.93002 0.74927,-2.27619 1.49787,-4.55306 2.24566,-6.8307 0.59344,-2.18265 1.18598,-4.36594 1.77784,-6.55001 0.063,-2.58812 0.12548,-5.17689 0.1871,-7.76643 7.3e-4,-2.08907 7.3e-4,-4.17879 0,-6.26929 0.21902,-0.74784 0.43734,-1.49642 0.655,-2.24572 0.46857,-0.37354 0.99879,-0.74784 1.49714,-1.12284 0.31266,-0.6231 0.62456,-1.2469 0.93573,-1.87145 -0.093,-1.58999 -0.18654,-3.18069 -0.28073,-4.77214 -0.68547,-0.77904 -1.37167,-1.55879 -2.05863,-2.33929 -0.46709,-0.12408 -0.93496,-0.24871 -1.40354,-0.37427 -4.49074,-0.31118 -8.98209,-0.62307 -13.47426,-0.93573 -6.42467,-0.34237 -12.84977,-0.68544 -19.27578,-1.0293 -3.83575,0.40623 -7.67207,0.81171 -11.5093,1.21645 -2.3698,0.4062 -4.74018,0.81168 -7.1114,1.21642 -1.9643,0.62456 -3.92926,1.24835 -5.89504,1.87142 -2.15139,1.21721 -4.30348,2.4336 -6.45638,3.64929 -2.7129,0.74933 -5.42641,1.49791 -8.1407,2.24572 -3.58631,-0.0305 -7.17314,-0.0616 -10.76078,-0.0935 -2.151392,-0.43592 -4.303564,-0.8726 -6.456437,-1.31 -1.777116,-0.87259 -3.55496,-1.74592 -5.33356,-2.61999 -2.369796,-1.18452 -4.74018,-2.36974 -7.111404,-3.55572 -3.180799,-0.52952 -6.362131,-1.05974 -9.54433,-1.59072 -3.243118,-0.24871 -6.486851,-0.5607 -9.731453,-0.84215 -4.490739,0.15657 -8.982095,0.31266 -13.474262,0.46785 -5.707245,0.28148 -11.414966,0.56218 -17.12361,0.84215 -1.340413,0.063 -2.743957,0.12547 -4.117111,0.18709 -0.404774,0.25039 -0.810191,0.49981 -1.216449,0.74857 z" />
    <rect
       style="fill:none;stroke:#1a1a1a;stroke-width:0.277238"
       id="rect896"
       width="49.804359"
       height="33.16288"
       x="37.582024"
       y="150.09952"
       ry="6.9242902" />
    <rect
       ry="6.9242902"
       y="150.09952"
       x="126.66211"
       height="33.16288"
       width="49.804359"
       id="rect898"
       style="fill:none;stroke:#1a1a1a;stroke-width:0.277238" />
    <text
       xml:space="preserve"
       id="text904"
       style="font-style:normal;font-variant:normal;font-weight:normal;font-stretch:normal;font-size:10.5833px;line-height:1.25;font-family:'Helvetica Neue LT Std';-inkscape-font-specification:'Helvetica Neue LT Std, Normal';font-variant-ligatures:normal;font-variant-caps:normal;font-variant-numeric:normal;font-variant-east-asian:normal;white-space:pre;shape-inside:url(#rect906);fill:#aeb0bf;fill-opacity:1;stroke:none;"
       transform="matrix(4.3787015,0,0,5.834407,-177.06778,-378.17981)"><tspan
         x="52.916016"
         y="105.26415"><tspan
           style="font-style:normal;font-variant:normal;font-weight:normal;font-stretch:normal;font-size:10.5833px;font-family:'Helvetica Neue LT Std';-inkscape-font-specification:'Helvetica Neue LT Std, Normal';font-variant-ligatures:normal;font-variant-caps:normal;font-variant-numeric:normal;font-variant-east-asian:normal;fill:#aeb0bf;fill-opacity:1">error</tspan></tspan></text>
  </g>
</svg>
